<?xml version="1.0" encoding="utf-8"?>
<!-- Generator: Adobe Illustrator 27.2.0, SVG Export Plug-In . SVG Version: 6.00 Build 0)  -->
<svg version="1.1" id="Ebene_1" xmlns="http://www.w3.org/2000/svg" xmlns:xlink="http://www.w3.org/1999/xlink" x="0px" y="0px"
	 viewBox="0 0 919.6 262.3" style="enable-background:new 0 0 919.6 262.3;" xml:space="preserve">
<style type="text/css">
	.st0{fill:#3C3C3B;}
	.st1{fill:#E30613;}
</style>
<path class="st0" d="M505.3,235.7h3.4l4.5-22h0.1l9.5,22h3.8l5.6-26.7h-3.4l-4.5,22.1h-0.1l-9.5-22.1h-3.8L505.3,235.7z
	 M410.7,224.6c0-6.4,3.7-13.3,11.1-13.3c4.9,0,7.6,3.9,7.6,8.8c0,6.4-3.7,13.2-10.8,13.2C413.2,233.4,410.7,229.8,410.7,224.6
	 M407.1,224.6c0,7.4,4.2,11.7,11.4,11.7c8.9,0,14.4-7.8,14.4-16.2c0-6.6-4.2-11.8-11.1-11.8C412.6,208.4,407.1,216,407.1,224.6
	 M318,212h6.6c2.2,0,5.2,0.3,5.2,3.4c0,3.3-2,5.1-5.7,5.1h-7.9L318,212z M309.6,235.7h13.2c5.3,0,9.5-3.1,9.5-8.3
	c0-2.8-1.6-4.8-4-5.5v-0.1c3.1-0.5,5.1-3.5,5.1-6.4c0-4-2.2-6.4-7.4-6.4h-10.7L309.6,235.7z M315.6,223.5h7.6c2.9,0,5.5,0.6,5.5,4
	c0,4.9-4.7,5.3-6.5,5.3h-8.6L315.6,223.5z M213.1,235.7h3.6l2.4-11.4h7.9c1.5,0,5.1-0.7,4,5.7c-0.5,2.7-0.4,4.8-0.1,5.7h3.7
	c-1.1-2.1-0.2-4.4,0-6.8c0.3-2.7-0.4-5.1-2.7-5.8V223c3.5-0.5,6-3.6,6-7.2c0-5.3-4.3-6.8-8.8-6.8h-10.3L213.1,235.7z M221.7,212h7.4
	c2.7,0,5.2,0.7,5.2,4c0,1.9-1,5.3-6.6,5.3h-8L221.7,212z M114.7,235.7h4l4.7-8h11.3l1.2,8h3.7l-4.8-26.7h-3.9L114.7,235.7z
	 M132.1,212.2L132.1,212.2l2.1,12.5H125L132.1,212.2z M40.7,226.7c-1.2,4.2-3.9,6.7-8.3,6.7c-5.3,0-7.9-3.6-7.9-8.7
	c0-6.4,3.7-13.3,11.1-13.3c3.9,0,6.6,2.1,6.6,6.3h3.6c0-6.2-4.4-9.2-10.2-9.2c-9.1,0-14.7,7.6-14.7,16.3c0,7.4,4.1,11.7,11.4,11.7
	c6.6,0,10.5-3.7,11.8-9.7H40.7z"/>
<path class="st1" d="M509.8,118.4h-10.5l0.8-4c1.4-6.6,3.4-8.5,6.9-8.5c3.9,0,5,1.9,3.6,8.5L509.8,118.4z M496.7,131.1h33.2l0.2-1.1
	c4.5-21.1,7.9-38.3-19.7-38.3c-26.7,0-33.1,16.5-37.1,35.4c-4,19.1-4.7,35.5,22,35.5c8.2,0,15.5-1.9,21.1-5.9
	c5.6-4,9.4-10.3,11.4-19.6h-21.9c-1.5,6.9-2.9,11.2-7.6,11.2c-5,0-4.2-4.9-3.4-8.5L496.7,131.1z M439.4,114.2h-0.3l9-42.3h-24.6
	l-18.9,89h24.2l3.5-16.6l4.8-5.5l5.5,22.1h25.7l-11.9-39.5l24.5-27.9h-25.7L439.4,114.2z M372.2,160.9h24.2l18.9-89h-24.2
	L372.2,160.9z M338.9,127.1c3.3-15.7,5.2-19.8,9.6-19.8c4.4,0,4.5,4.1,1.1,19.8c-3.3,15.7-5.2,19.8-9.6,19.8
	C335.7,146.9,335.5,142.8,338.9,127.1 M351.7,91.7c-26.7,0-33,16.5-37.1,35.4c-4,19.1-4.7,35.5,22,35.5c26.7,0,33.1-16.5,37.1-35.5
	C377.8,108.2,378.4,91.7,351.7,91.7 M277.6,160.9h24.2l11.1-52.1c2.6-12.3-4.2-17.1-12.8-17.1c-8.1,0-14.8,2.9-19.7,9.5
	c-2.1-6.7-7.6-9.5-14.1-9.5c-8.1,0-14.8,2.9-19.8,9.5h-0.3l1.6-7.7h-23.4L210,160.9h24.2l9.5-44.6c0.8-3.9,3-6.6,6.3-6.6
	c3.1,0,4.4,1.5,3.3,6.6l-9.5,44.6H268l9.5-44.6c0.8-3.9,3-6.6,6.3-6.6c3.1,0,4.4,1.5,3.3,6.6L277.6,160.9z M178.1,160.9h24.2
	l11.1-52.1c2.6-12.3-4.2-17.1-12.8-17.1c-7.3,0-14.1,2.9-19.1,9.5h-0.2l6.2-29.3h-24.2l-18.9,89h24.2l9.5-44.6
	c0.8-3.9,3-6.6,6.3-6.6c3.1,0,4.4,1.5,3.3,6.6L178.1,160.9z M125,120.1h22.3c4.3-20.2,0.3-28.4-21.8-28.4c-26.7,0-33,16.5-37.1,35.4
	c-4.1,19.1-4.7,35.5,22,35.5c10.5,0,18-2.4,23.4-7.4c5.4-4.9,8.6-12.5,10.9-23.3h-21.9c-2.5,11.7-4.3,15-9,15c-5,0-4.7-3.2-1.1-19.8
	c3.6-16.8,5.2-19.7,9.7-19.7c4.1,0,4.8,2.9,3.3,9.6L125,120.1z M66.1,97.4h23.4c3.2-14.8,1.6-27.3-23.6-27.3
	c-9.7,0-16.6,2.5-21.5,5.5C37.8,79.7,32.6,86.5,30,98.8c-2.8,13.2,0.6,18.1,12.7,24.8c4,2.2,8.1,4,11.1,5.9c2.8,1.9,4.7,3.1,3.5,8.9
	c-0.8,3.9-3.2,7.9-7.8,7.9c-4.4,0-5.5-3.5-4.6-7.9l0.9-4.1H21.6l-0.5,2.4c-4.2,19.6,4.9,26.1,24,26.1c23.1,0,34.4-8.2,38.8-28.9
	c6.8-31.8-32.3-22.7-28.6-40.4c0.8-3.6,3.4-6.7,7.2-6.7c4.2,0,5.1,3.5,4.3,7.2L66.1,97.4z"/>
<path class="st1" d="M812.4,149.7c35.2-44,70.1-87.6,70.1-87.6s6.2,23.8,7.7,29.4c3.4-4.6,15-20.5,15.9-21.7
	c-0.5-1.6-12-39.3-12.6-41.4c-2.1-0.3-39.2-5.8-41.2-6.1c-0.3,0.4-1.8,2.2-3.6,4.5l5.5,18.1c5.6,0.8,10.3,1.5,10.3,1.5
	s-2.7,3.4-7.2,9l4.4,14.6l-21,27.8c0,0-2.4-7.9-4.7-15.5c-11.3,14.3-24.9,31.4-38.6,48.7C803.3,138.3,808.4,144.7,812.4,149.7"/>
<path class="st1" d="M740.3,239.7c0.3-0.3,1.8-2.2,4.2-5.3c-3.9-4.8-8.8-11-14.5-18.1c-2.3,3-3.7,4.7-3.9,4.9
	C727.6,223.1,738.1,236.8,740.3,239.7"/>
<path class="st1" d="M724.3,203.3c16.5,20.6,28.4,35.4,29.2,36.4c2.2-2.9,12.7-16.6,14.1-18.5c-0.3-0.3-9.4-11.8-20.4-25.8
	c-2.6-3.3-5.3-6.7-8.3-10.4C733.2,192.1,728.2,198.4,724.3,203.3"/>
<path class="st1" d="M706.1,82.2c-2.4,7.9-4.8,16.1-4.8,16.1l-21.9-27.7l5.3-15.5c-4.7-5.9-7.5-9.5-7.5-9.5s5.3-0.8,11.3-1.7
	l5.2-15.2c-2.6-3-4.8-5.4-5.2-5.9c-1.8,0.2-38.5,4.5-40.7,4.8c-0.6,2.1-12.1,40.1-12.6,41.8c0.9,1.2,12.3,16.3,15.5,20.6
	c1.6-5.3,8.6-28.6,8.6-28.6s21.7,27,46.5,57.8c4.9-6.1,9.9-12.4,14.9-18.7C715.6,94.1,710.7,88,706.1,82.2"/>
<path class="st1" d="M791.8,190.2c-0.1-0.1-0.7-0.9-1.6-2l-2-2.5l-14.5,18.1c2.2,2.7,3.6,4.5,3.9,4.9
	C779.9,205.8,790.4,192.1,791.8,190.2"/>
<path class="st1" d="M816.4,160.5c-0.1-0.2-0.8-1-1.8-2.2c-0.6-0.8-1.5-1.9-2.5-3.1c-0.8-1-1.7-2.2-2.8-3.5
	c-5.5-6.9-13.6-17-21.8-27.3c-4.8,5.9-9.6,12-14.5,18.1c14,17.7,27.8,34.9,28.4,35.7C803.7,175.5,814.8,162.4,816.4,160.5"/>
<path class="st1" d="M701.1,190.2c1.4,1.8,11.9,15.6,14.1,18.5c0.9-1.1,12.9-16,28.9-35.9c-4.6-5.7-10.3-12.8-14.7-18.3
	C713.5,174.6,701.6,189.5,701.1,190.2"/>
<path class="st1" d="M748.8,130.1c4.4,5.6,10.1,12.8,14.7,18.6c32.8-40.8,70.2-87.3,70.2-87.3s7,23.3,8.6,28.6
	c3.2-4.3,14.6-19.4,15.5-20.6c-0.5-1.7-12-39.6-12.6-41.8c-2.2-0.3-39-4.6-40.7-4.8c-0.4,0.4-2.2,2.5-4.5,5.2l5.5,16
	c5.6,0.8,10.4,1.5,10.4,1.5s-2.6,3.2-6.9,8.7l5.5,16.3l-22,27.7c0,0-2.6-8.8-5-17C775.8,96.1,761.9,113.5,748.8,130.1"/>
<path class="st1" d="M744.1,130.1c-0.1-0.1-0.1-0.2-0.2-0.3c-1.6-2-2.9-3.6-3.6-4.6c-0.3-0.4-0.5-0.6-0.6-0.8
	c-5,6.3-10,12.5-14.8,18.6c0.4,0.5,2.2,2.7,4.5,5.6c0.7,0.9,1.5,1.9,2.3,2.9c4.4,5.5,10.1,12.6,14.7,18.3c0.8,1,1.6,2,2.4,2.9
	c0.3,0.4,0.7,0.9,1,1.3c2.4,3,4.2,5.2,4.6,5.7l14.5-18.4c-0.3-0.4-1.7-2.1-3.5-4.5c-0.6-0.7-1.2-1.5-1.9-2.4
	c-0.7-0.9-1.5-1.9-2.3-2.9c-4.6-5.8-10.3-13-14.7-18.5C745.6,132,744.8,131,744.1,130.1"/>
<path class="st1" d="M785.3,61.4c0,0,7.1,23.9,8.7,29.2c3.3-4.2,15.3-19.4,16.4-20.7c-0.6-1.8-13.2-38.9-13.9-40.9
	c-2-0.3-39.2-5.8-41.2-6.1c-1.1,1.4-12.2,15.6-15.2,19.4c5,0.6,28.8,3.6,28.8,3.6s-8.2,10.2-19.6,24.6c5.3,6.6,10.6,13.3,14.4,18
	C776.2,72.8,785.3,61.4,785.3,61.4"/>
<path class="st1" d="M744.6,112.6c-3.9-4.8-9.1-11.5-14.4-18.1c-10,12.5-20.4,25.5-29.3,36.7c5.4,6.8,10.4,13.1,14.4,18.2
	C724.2,138.2,734.5,125.2,744.6,112.6"/>
<path class="st1" d="M677.4,160.5c1.6,1.9,12.7,15,14.9,17.7c0.3-0.4,1.6-2,3.6-4.5c-4.6-5.8-9.5-11.9-14.5-18.2
	C679.1,158.5,677.6,160.3,677.4,160.5"/>
<path class="st1" d="M746.9,109.6c0.8,1,1.6,2,2.3,2.9c1.6,2,3.1,3.9,4.4,5.5c5.1-6.5,10-12.7,14.4-18.1c-1.3-1.5-2.8-3.4-4.4-5.5
	c-0.8-0.9-1.5-1.9-2.3-2.9c-4.3-5.4-9.4-11.7-14.4-18c-0.8-1-1.6-1.9-2.3-2.9c-3.4-4.3-6.8-8.5-9.7-12.1c-0.8-1-1.6-2-2.3-2.9
	C728,49.9,725,46,725,46s3.7-0.5,8.4-1.1l11.2-14.3c-2.9-3.8-5.5-7.1-6-7.7c-2,0.3-39.2,5.8-41.2,6.1c-0.7,2-13.3,39.1-13.9,40.9
	c1,1.3,13.1,16.5,16.4,20.7c1.6-5.3,8.7-29.2,8.7-29.2s0.1,0.2,0.3,0.4c0.1,0.1,0.2,0.2,0.3,0.3c0.3,0.4,0.7,0.9,1.2,1.5
	c3.4,4.3,11.4,14.3,19.9,25c0.8,1,1.6,2,2.3,2.9C737.5,97.8,742.6,104.2,746.9,109.6"/>
<path class="st1" d="M683.7,152.6c5,6.3,9.9,12.4,14.5,18.1c0.8,1,1.6,2,2.3,2.9c1.5,1.9,3,3.8,4.5,5.6c1.7-2.1,3.5-4.4,5.5-6.9
	c2.8-3.5,5.8-7.4,9.2-11.6c-0.4-0.5-0.9-1.2-1.4-1.7c-0.9-1.2-2-2.5-3.1-3.9c-0.8-1-1.5-1.9-2.3-2.9c-4.2-5.3-9.2-11.6-14.4-18.2
	c-0.8-1-1.5-1.9-2.3-2.9c-8.7-11-18-22.7-25.7-32.4c-0.8-1-1.6-2-2.4-3c-1.7-2.2-3.3-4.2-4.8-6.1c-2.5-3.2-4.7-6-6.4-8
	c-2.4,7.9-4.9,16.4-4.9,16.4l-21-27.8l4.6-15.4c-4.1-5.2-6.5-8.2-6.5-8.2s4.2-0.6,9.4-1.4l5.8-19.1c-1.5-1.9-2.6-3.3-2.9-3.6
	c-1.9,0.3-39.1,5.8-41.2,6.1c-0.6,2.1-12.1,39.7-12.6,41.4c0.9,1.2,12.5,17.1,15.9,21.7c1.5-5.7,7.7-29.5,7.7-29.5s0.2,0.2,0.5,0.6
	c0.2,0.2,0.4,0.5,0.6,0.8c6.3,7.9,39.4,49.2,69,86.2C682.2,150.7,683,151.7,683.7,152.6"/>
<polygon class="st1" points="749.2,192.1 763.7,210.5 785.9,182.8 793.2,173.7 787.9,167 778.5,155.2 771.3,164.3 "/>
</svg>
